<?xml version="1.0" encoding="utf-8"?>
<!-- Generator: Adobe Illustrator 22.1.0, SVG Export Plug-In . SVG Version: 6.00 Build 0)  -->
<svg version="1.1" id="Layer_1" xmlns="http://www.w3.org/2000/svg" xmlns:xlink="http://www.w3.org/1999/xlink" x="0px" y="0px"
	 viewBox="0 0 16 16" style="enable-background:new 0 0 16 16;" xml:space="preserve">
<style type="text/css">
	.st0{fill:#646766;}
	.st1{fill:#FFFFFF;}
	.st2{fill:none;stroke:#EDC87E;stroke-linecap:square;stroke-miterlimit:10;}
	.st3{fill:none;stroke:#B1B1B1;stroke-linecap:square;stroke-miterlimit:10;}
	.st4{fill:#4E84B9;}
	.st5{fill:none;stroke:#646766;stroke-linecap:square;stroke-miterlimit:10;}
	.st6{fill:none;stroke:#FFFFFF;stroke-linecap:square;stroke-miterlimit:10;}
</style>
<g>
	<path class="st0" d="M12,0H2v16h13V3L12,0z M12,1.4L13.6,3H12V1.4z M14,15H3V1h8v3h3V15z"/>
	<polygon class="st1" points="13.6,3 12,3 12,1.4 	"/>
	<polygon class="st1" points="14,4 14,15 3,15 3,1 11,1 11,4 	"/>
</g>
<line class="st2" x1="4.5" y1="3.5" x2="9.5" y2="3.5"/>
<line class="st2" x1="4.5" y1="5.5" x2="9.5" y2="5.5"/>
<line class="st3" x1="4.5" y1="7.5" x2="12.5" y2="7.5"/>
<line class="st3" x1="4.5" y1="9.5" x2="12.5" y2="9.5"/>
<line class="st3" x1="4.5" y1="11.5" x2="12.5" y2="11.5"/>
<line class="st3" x1="4.5" y1="13.5" x2="12.5" y2="13.5"/>
<g>
	<polygon class="st4" points="13.5,11.5 9.5,11.5 9.5,9.5 13.5,9.5 13.5,7.3 16.7,10.5 13.5,13.7 	"/>
	<path class="st1" d="M14,8.5l2,2l-2,2V11h-4v-1h4V8.5 M13,6.1v2.4V9h-3H9v1v1v1h1h3v0.5v2.4l1.7-1.7l2-2l0.7-0.7l-0.7-0.7l-2-2
		L13,6.1L13,6.1z"/>
</g>
<line class="st5" x1="1.5" y1="13.5" x2="0.5" y2="13.5"/>
<line class="st5" x1="0.5" y1="0.5" x2="0.5" y2="12.5"/>
<line class="st6" x1="1.5" y1="0.5" x2="1.5" y2="12.5"/>
</svg>
