<?xml version="1.0" encoding="utf-8"?>
<!-- Generator: Adobe Illustrator 22.1.0, SVG Export Plug-In . SVG Version: 6.00 Build 0)  -->
<svg version="1.1" id="Layer_1" xmlns="http://www.w3.org/2000/svg" xmlns:xlink="http://www.w3.org/1999/xlink" x="0px" y="0px"
	 viewBox="0 0 32 32" style="enable-background:new 0 0 32 32;" xml:space="preserve">
<style type="text/css">
	.st0{fill:#B2B1B2;}
	.st1{fill:#EDC87E;}
	.st2{fill:#4D83B8;}
	.st3{fill:#FFFFFF;}
</style>
<path class="st0" d="M22,11h-1v3h-4v-3h-3c0-1.7-1.3-3-3-3H6c-1.7,0-3,1.3-3,3v14c0,1.4,0.9,2.5,2.2,2.9c-0.5-0.2-0.6-0.9-0.9-1.3
	c-0.4-0.6,0.2-1,0.5-1.8l3.5-8c0.6-1.4,1.5-2,3-2h12.5L25,14l0,0C25,12.3,23.7,11,22,11z"/>
<g>
	<path class="st1" d="M28.6,15c-0.4-0.6-1.1-1-2-1h-16c-1.5,0-3.1,1-3.6,2.5l-3.1,8.3C3.5,25.6,3.6,26.4,4,27s1.1,1,2,1h16
		c1.5,0,3.1-1,3.7-2.5l3.1-8.3C29.1,16.4,29.1,15.6,28.6,15z M27,16.5l-3.1,8.3C23.6,25.4,22.7,26,22,26H6c-0.3,0-0.5-0.1-0.5-0.1
		s0-0.1,0.1-0.4l3.1-8.3C9,16.6,9.9,16,10.6,16h16c0.3,0,0.4,0.1,0.4,0.1S27,16.3,27,16.5z"/>
	<path class="st1" d="M27,16.1c0,0,0,0.2,0,0.4l-3.1,8.3C23.6,25.4,22.7,26,22,26H6c-0.3,0-0.5-0.1-0.5-0.1s0-0.1,0.1-0.4l3.1-8.3
		C9,16.6,9.9,16,10.6,16h16C26.9,16,27,16.1,27,16.1z"/>
</g>
<rect x="17" y="11" class="st0" width="5" height="3"/>
<g>
	<rect x="1" y="1" class="st2" width="30" height="12"/>
</g>
<g>
	<path class="st3" d="M2.1,11V2.6h2.4c0.6,0,1,0.1,1.3,0.2c0.4,0.1,0.8,0.4,1,0.7s0.5,0.8,0.7,1.4C7.8,5.4,7.9,6,7.9,6.8
		c0,1-0.1,1.8-0.4,2.4s-0.6,1.1-1.1,1.4S5.3,11,4.6,11H2.1z M3,10h1.5c0.6,0,1-0.1,1.4-0.3c0.3-0.2,0.5-0.5,0.7-0.9
		c0.2-0.6,0.3-1.3,0.3-2.1c0-0.9-0.1-1.5-0.3-2C6.3,4.2,6,3.9,5.7,3.8C5.4,3.6,5,3.6,4.5,3.6H3V10z"/>
	<path class="st3" d="M9.2,11V2.6h5v1h-4.1v2.6h3.8v1h-3.8V10h4.2v1H9.2z"/>
	<path class="st3" d="M15.6,11V2.6h1.4l1.6,6l0.3,1.2c0.1-0.3,0.2-0.8,0.4-1.4l1.7-5.9h1.2V11h-0.9V4l-2,7.1h-0.8l-2-7.2V11H15.6z"
		/>
	<path class="st3" d="M23.4,6.9c0-1.4,0.3-2.5,0.9-3.3s1.4-1.2,2.4-1.2c0.6,0,1.2,0.2,1.7,0.5c0.5,0.3,0.9,0.8,1.2,1.5
		C29.9,5.1,30,5.9,30,6.8c0,1.3-0.3,2.3-0.9,3.1c-0.6,0.9-1.4,1.3-2.5,1.3c-1,0-1.8-0.4-2.5-1.3C23.7,9,23.4,8.1,23.4,6.9z
		 M24.3,6.9c0,1,0.2,1.8,0.7,2.4c0.5,0.6,1,0.9,1.7,0.9c0.7,0,1.2-0.3,1.7-0.9c0.5-0.6,0.7-1.4,0.7-2.6c0-0.7-0.1-1.4-0.4-1.9
		c-0.2-0.4-0.5-0.8-0.8-1.1c-0.4-0.3-0.8-0.4-1.2-0.4c-0.7,0-1.3,0.3-1.7,0.9S24.3,5.7,24.3,6.9z"/>
</g>
</svg>
