<?xml version="1.0" encoding="utf-8"?>
<!-- Generator: Adobe Illustrator 22.1.0, SVG Export Plug-In . SVG Version: 6.00 Build 0)  -->
<svg version="1.1" id="Layer_1" xmlns="http://www.w3.org/2000/svg" xmlns:xlink="http://www.w3.org/1999/xlink" x="0px" y="0px"
	 viewBox="0 0 16 16" style="enable-background:new 0 0 16 16;" xml:space="preserve">
<style type="text/css">
	.st0{fill:none;}
	.st1{fill:#EDC87E;}
	.st2{fill:none;stroke:#EDC87E;stroke-miterlimit:10;}
	.st3{fill:#B1B1B1;}
	.st4{fill:#4D83B8;}
	.st5{fill:#FFFFFF;}
</style>
<rect x="1" y="3" class="st0" width="14" height="14"/>
<g id="XMLID_1_">
	<g>
		<path class="st1" d="M13.7,8.4c0.6,0,0.9,0.4,0.7,1l-1.7,4.5c-0.2,0.5-0.9,1-1.5,1H2.6c-0.6,0-0.9-0.5-0.7-1l1.7-4.5
			c0.2-0.5,0.9-1,1.5-1C5.1,8.4,13.7,8.4,13.7,8.4z"/>
	</g>
	<g>
		<path class="st2" d="M12.7,13.9c-0.2,0.5-0.9,1-1.5,1H2.6c-0.6,0-0.9-0.5-0.7-1l1.7-4.5c0.2-0.5,0.9-1,1.5-1h8.6
			c0.6,0,0.9,0.4,0.7,1L12.7,13.9z"/>
	</g>
</g>
<g>
	<path class="st3" d="M1.7,14.6c-0.2-0.3,0.1-0.5,0.3-1l1.9-4.3c0.3-0.8,0.8-1.1,1.6-1.1h6.7l0.6-0.4l0,0c0-0.9-0.7-1.6-1.6-1.6H6.9
		c0-0.9-0.7-1.6-1.6-1.6H2.6C1.7,4.6,1,5.3,1,6.2v7.5c0,0.7,0.5,1.4,1.2,1.5C1.9,15.2,1.8,14.8,1.7,14.6z"/>
</g>
<rect class="st4" width="16" height="8"/>
<g>
	<path class="st5" d="M1,6.6V1.1h1.6c0.4,0,0.7,0,0.9,0.1c0.3,0.1,0.5,0.2,0.7,0.5c0.2,0.2,0.3,0.5,0.5,0.9s0.2,0.8,0.2,1.3
		c0,0.6-0.1,1.2-0.3,1.6S4,6.2,3.8,6.3C3.5,6.5,3.1,6.6,2.6,6.6H1z M1.6,6h1C3,6,3.2,5.9,3.4,5.8c0.2-0.1,0.4-0.3,0.5-0.6
		c0.1-0.4,0.2-0.8,0.2-1.3c0-0.6-0.1-1-0.2-1.3C3.7,2.2,3.5,2,3.3,1.9C3.2,1.8,2.9,1.7,2.5,1.7H1.6V6z"/>
	<path class="st5" d="M5.6,6.6V1.1h0.9L7.5,5l0.2,0.8C7.8,5.6,7.9,5.3,8,4.9l1.1-3.8h0.8v5.5H9.3V2L8,6.6H7.4L6.1,1.9v4.7H5.6z"/>
	<path class="st5" d="M10.7,3.9c0-0.9,0.2-1.7,0.6-2.2S12.2,1,12.8,1c0.4,0,0.8,0.1,1.1,0.3c0.3,0.2,0.6,0.6,0.8,1S15,3.3,15,3.9
		c0,0.8-0.2,1.5-0.6,2c-0.4,0.6-0.9,0.9-1.6,0.9c-0.7,0-1.2-0.3-1.6-0.9C10.9,5.3,10.7,4.7,10.7,3.9z M11.3,3.9
		c0,0.7,0.1,1.2,0.4,1.6c0.3,0.4,0.7,0.6,1.1,0.6c0.4,0,0.8-0.2,1.1-0.6c0.3-0.4,0.4-0.9,0.4-1.7c0-0.5-0.1-0.9-0.2-1.3
		c-0.1-0.3-0.3-0.5-0.5-0.7c-0.2-0.2-0.5-0.3-0.8-0.3c-0.5,0-0.8,0.2-1.1,0.6C11.4,2.6,11.3,3.1,11.3,3.9z"/>
</g>
</svg>
