<?xml version="1.0" encoding="utf-8"?>
<!-- Generator: Adobe Illustrator 22.1.0, SVG Export Plug-In . SVG Version: 6.00 Build 0)  -->
<svg version="1.1" id="Layer_1" xmlns="http://www.w3.org/2000/svg" xmlns:xlink="http://www.w3.org/1999/xlink" x="0px" y="0px"
	 viewBox="0 0 16 16" style="enable-background:new 0 0 16 16;" xml:space="preserve">
<style type="text/css">
	.st0{fill:#646766;}
	.st1{fill:#4D83B8;}
	.st2{fill:#FFFFFF;}
</style>
<path class="st0" d="M8,6.7c3.3,0,6-1.2,6-2.7c0-1.5-2.7-2.7-6-2.7C4.7,1.4,2,2.6,2,4C2,5.5,4.7,6.7,8,6.7z"/>
<path class="st0" d="M10,7.3C9.4,7.4,8.7,7.4,8,7.4c-3.3,0-6-1.2-6-2.7c0,0.6,0,1,0,2c0,1.5,2.7,2.7,6,2.7c0.7,0,1.4-0.1,2-0.2V8
	V7.3z"/>
<path class="st0" d="M14,7c0-0.1,0-0.1,0-0.2c0-0.5,0-1.1,0-2c0,0.9-1.1,1.8-2.8,2.2H13H14z"/>
<path class="st0" d="M7,10.2C4.2,9.9,2,8.8,2,7.5c0,0.6,0,1,0,2c0,1.3,2.2,2.4,5,2.6V11V10.2z"/>
<path class="st0" d="M8,14H7v-1v-0.1c-2.8-0.2-5-1.3-5-2.6c0,0.6,0,1,0,2C2,13.8,4.7,15,8,15c0.7,0,1.4-0.1,2-0.2V14H8z"/>
<polygon class="st1" points="16,11 13,11 13,8 11,8 11,11 8,11 8,13 11,13 11,16 13,16 13,13 16,13 "/>
<rect x="0" y="0" class="st1" width="16" height="6"/>
<g>
	<path class="st2" d="M1.4,0.8h1.5c0.3,0,0.6,0,0.8,0.1C4,1,4.2,1.1,4.4,1.3C4.5,1.5,4.7,1.7,4.8,2c0.1,0.3,0.1,0.6,0.1,1
		c0,0.3,0,0.6-0.1,0.9C4.7,4.1,4.5,4.4,4.3,4.6C4.2,4.7,4,4.8,3.7,4.9C3.5,5,3.3,5,3,5H1.4V0.8z M2.2,1.5v2.8h0.6c0.2,0,0.4,0,0.5,0
		c0.1,0,0.2-0.1,0.3-0.2C3.8,4,3.9,3.9,3.9,3.7C4,3.5,4,3.2,4,2.9s0-0.6-0.1-0.7C3.9,2,3.8,1.9,3.7,1.8C3.6,1.7,3.5,1.6,3.3,1.6
		c-0.1,0-0.3,0-0.7,0H2.2z"/>
	<path class="st2" d="M5.6,5V0.8h1.3l0.8,2.8l0.7-2.8h1.3V5H8.8V1.7L8,5H7.2L6.4,1.7V5H5.6z"/>
	<path class="st2" d="M10.3,2.9c0-0.4,0.1-0.8,0.2-1.1c0.1-0.2,0.2-0.4,0.4-0.6s0.3-0.3,0.5-0.4c0.3-0.1,0.6-0.2,0.9-0.2
		c0.6,0,1.1,0.2,1.5,0.6c0.4,0.4,0.6,0.9,0.6,1.6c0,0.7-0.2,1.2-0.5,1.6s-0.9,0.6-1.5,0.6c-0.6,0-1.1-0.2-1.5-0.6S10.3,3.6,10.3,2.9
		z M11.1,2.9c0,0.5,0.1,0.8,0.3,1.1s0.5,0.4,0.8,0.4c0.3,0,0.6-0.1,0.8-0.4c0.2-0.2,0.3-0.6,0.3-1.1c0-0.5-0.1-0.8-0.3-1.1
		s-0.5-0.4-0.8-0.4c-0.3,0-0.6,0.1-0.8,0.4C11.2,2.1,11.1,2.4,11.1,2.9z"/>
</g>
</svg>
