<?xml version="1.0" encoding="utf-8"?>
<!-- Generator: Adobe Illustrator 22.1.0, SVG Export Plug-In . SVG Version: 6.00 Build 0)  -->
<svg version="1.1" id="Layer_1" xmlns="http://www.w3.org/2000/svg" xmlns:xlink="http://www.w3.org/1999/xlink" x="0px" y="0px"
	 viewBox="0 0 32 32" style="enable-background:new 0 0 32 32;" xml:space="preserve">
<style type="text/css">
	.st0{fill:none;stroke:#656867;stroke-linecap:square;stroke-miterlimit:10;}
	.st1{fill:#FFFFFF;}
	.st2{fill:#656867;}
	.st3{fill:#EDC87F;stroke:#656867;stroke-width:2;stroke-miterlimit:10;}
	.st4{fill:none;stroke:#656867;stroke-width:3;stroke-miterlimit:10;}
</style>
<g>
	<line class="st0" x1="11.5" y1="26.5" x2="3.5" y2="26.5"/>
	<g>
		<line class="st0" x1="11.5" y1="4.5" x2="3.5" y2="4.5"/>
		<line class="st0" x1="7.5" y1="5.5" x2="7.5" y2="25.5"/>
		<g>
			<rect x="0.5" y="7.5" class="st1" width="5.5" height="16"/>
			<rect x="9" y="7.5" class="st1" width="18.5" height="16"/>
		</g>
		<g>
			<polygon class="st2" points="27,23 27,8 9,8 9,7 28,7 28,24 9,24 9,23 			"/>
			<polygon class="st2" points="6,7 6,8 1,8 1,23 6,23 6,24 0,24 0,7 			"/>
		</g>
	</g>
</g>
<g>
	<circle class="st3" cx="19.9" cy="15.9" r="9.9"/>
	<line class="st4" x1="26.9" y1="22.9" x2="39" y2="35"/>
</g>
</svg>
